<svg width="19" height="19" viewBox="0 0 19 19" fill="none" xmlns="http://www.w3.org/2000/svg">
<g clip-path="url(#clip0_435_67)">
<path d="M3.10207 18.2375L3.66827 17.9537L3.10207 18.2375ZM15.8979 18.2375L16.4641 18.5212L15.8979 18.2375ZM0.890467 7.6H18.1095V6.33333H0.890467V7.6ZM17.7333 7.2238V7.77987H19V7.2238H17.7333ZM15.6889 17.7333H3.31107V19H15.6889V17.7333ZM1.26667 7.77987V7.2238H0V7.77987H1.26667ZM3.66827 17.9537C2.08886 14.7948 1.26662 11.3116 1.26667 7.77987H0C0 11.5089 0.867667 15.1861 2.53587 18.5212L3.66827 17.9537ZM3.31107 17.7333C3.46307 17.7333 3.60113 17.8195 3.66827 17.9537L2.53587 18.5212C2.60798 18.665 2.71867 18.786 2.85556 18.8705C2.99246 18.9551 3.15017 18.9999 3.31107 19V17.7333ZM15.3317 17.9537C15.3649 17.8874 15.4159 17.8317 15.479 17.7928C15.5421 17.7538 15.6148 17.7333 15.6889 17.7333V19C16.0183 19 16.3172 18.8151 16.4641 18.5212L15.3317 17.9537ZM17.7333 7.77987C17.7333 11.3113 16.91 14.7947 15.3317 17.9537L16.4641 18.5212C18.1318 15.1862 19 11.5086 19 7.77987H17.7333ZM18.1095 7.6C18.0098 7.6 17.9141 7.56036 17.8435 7.48981C17.773 7.41926 17.7333 7.32357 17.7333 7.2238H19C19 6.98763 18.9062 6.76114 18.7392 6.59415C18.5722 6.42715 18.3457 6.33333 18.1095 6.33333V7.6ZM0.890467 6.33333C0.6543 6.33333 0.427807 6.42715 0.260812 6.59415C0.0938168 6.76114 0 6.98763 0 7.2238H1.26667C1.26667 7.32357 1.22703 7.41926 1.15648 7.48981C1.08593 7.56036 0.990241 7.6 0.890467 7.6V6.33333ZM4.97673 7.2922L8.77673 0.958867L7.68867 0.3078L3.88867 6.64113L4.97547 7.2922H4.97673ZM10.2233 0.958867L14.0233 7.2922L15.1101 6.64113L11.3101 0.3078L10.2233 0.958867Z" fill="#484526"/>
<path d="M3.9585 11.0833C5.54183 12.8756 9.10433 17.8125 15.0418 11.0833" stroke="#484526"/>
</g>
<defs>
<clipPath id="clip0_435_67">
<rect width="19" height="19" fill="white"/>
</clipPath>
</defs>
</svg>
